<svg width="1780" height="574" viewBox="0 0 1780 574" fill="none" xmlns="http://www.w3.org/2000/svg">
<path fill-rule="evenodd" clip-rule="evenodd" d="M775.984 494.049L776.457 0.771729L904.807 68.6641L902.455 439.6L1214.12 232.279L1250.94 251.757V51.7447H1604.13C1669.54 51.7447 1715.11 62.4276 1740.83 83.7934C1766.56 104.723 1779.42 147.673 1779.42 212.642C1779.42 273.687 1769.39 316.855 1749.33 342.145C1729.71 366.999 1688.29 379.426 1625.06 379.426H1591.05H1383.72V487.999H1250.94V362.272L925.726 573.257L775.984 494.049ZM614.158 155.739V487.999H739.736V51.7447H529.785L371.503 340.837L211.26 51.7447H0V487.999H124.925V155.739L315.255 487.999H421.865L614.158 155.739ZM1629.64 169.475C1640.11 177.323 1645.34 193.239 1645.34 217.221C1645.34 240.331 1640.11 255.592 1629.64 263.005C1619.61 269.981 1601.95 273.469 1576.66 273.469H1383.72V157.702H1574.7C1600.86 157.702 1619.18 161.626 1629.64 169.475ZM930.806 378.553L937.339 63.1684C936.596 61.5245 936.013 59.7482 935.603 57.8889C933.436 48.0502 935.982 39.2662 949.073 37.1971C966.077 33.3665 983.21 32.005 1000.18 32.8001C1088.45 35.4006 1184.8 89.7702 1212.29 180.471C1216.99 193.126 1210.9 199.781 1201.6 202.781C1200 203.298 1198.39 203.652 1196.8 203.834L930.806 378.553ZM1103.76 93.9674C1067.18 72.7808 1022.57 63.5522 979.167 68.6089L1172.66 173.869C1158.43 140.494 1133.61 113.258 1103.76 93.9674ZM1013.12 164.312C1007.46 174.715 994.438 178.56 984.035 172.901C973.632 167.242 969.787 154.221 975.446 143.818C981.105 133.415 994.126 129.57 1004.53 135.229C1014.93 140.888 1018.78 153.909 1013.12 164.312ZM1028 172.41C1017.87 191.034 994.562 197.918 975.938 187.787C957.314 177.655 950.429 154.345 960.56 135.721C970.692 117.097 994.003 110.212 1012.63 120.343C1031.25 130.475 1038.14 153.786 1028 172.41ZM976.469 271.109C984.493 275.474 994.537 272.508 998.901 264.484C1003.27 256.46 1000.3 246.417 992.276 242.052C984.253 237.687 974.209 240.653 969.844 248.677C965.479 256.701 968.446 266.744 976.469 271.109ZM970.224 282.59C984.589 290.405 1002.57 285.095 1010.38 270.73C1018.2 256.365 1012.89 238.385 998.522 230.571C984.157 222.756 966.177 228.066 958.363 242.431C950.549 256.796 955.859 274.776 970.224 282.59ZM1120.35 214.389C1115.69 222.951 1104.97 226.117 1096.41 221.459C1087.85 216.801 1084.68 206.083 1089.34 197.521C1094 188.958 1104.72 185.793 1113.28 190.451C1121.84 195.109 1125.01 205.826 1120.35 214.389ZM1132.6 221.054C1124.26 236.383 1105.07 242.05 1089.75 233.711C1074.42 225.372 1068.75 206.185 1077.09 190.856C1085.43 175.526 1104.61 169.86 1119.94 178.199C1135.27 186.538 1140.94 205.725 1132.6 221.054ZM986.415 326.242C984.148 330.409 978.932 331.95 974.765 329.682C970.597 327.415 969.057 322.199 971.324 318.032C973.591 313.865 978.807 312.324 982.974 314.591C987.142 316.858 988.682 322.074 986.415 326.242ZM961.219 104.202C965.124 106.327 970.012 104.883 972.136 100.978C974.26 97.0732 972.817 92.1856 968.912 90.0614C965.007 87.9371 960.119 89.3806 957.995 93.2855C955.871 97.1905 957.314 102.078 961.219 104.202ZM1046.89 221.871C1044.62 226.038 1039.41 227.578 1035.24 225.311C1031.07 223.044 1029.53 217.828 1031.8 213.661C1034.07 209.493 1039.28 207.953 1043.45 210.22C1047.62 212.487 1049.16 217.703 1046.89 221.871Z" fill="#B71C1C"/>
</svg>
