<svg width="2086" height="346" viewBox="0 0 2086 346" fill="none" xmlns="http://www.w3.org/2000/svg">
<path fill-rule="evenodd" clip-rule="evenodd" d="M1969.71 199.388C1966.02 199.388 1964.18 198 1964.18 195.223C1964.18 190.093 1967.62 183.575 1974.5 175.669C1981.39 167.702 1984.83 161.696 1984.83 157.653C1984.83 151.195 1980.69 147.966 1972.42 147.966C1964.15 147.966 1956.1 150.863 1948.25 156.657C1941.43 161.647 1935.83 168.116 1931.46 176.061C1925.31 181.412 1918.11 186.653 1909.86 191.783C1906 194.197 1902.17 196.43 1898.37 198.483C1894.63 200.474 1891.09 202.194 1887.78 203.643C1884.46 205.091 1881.47 206.208 1878.81 206.993C1876.22 207.777 1873.26 208.169 1869.94 208.169C1866.68 208.169 1863.15 207.174 1859.35 205.182C1871.66 199.931 1880.83 195.193 1886.87 190.968L1890.13 188.796C1891.7 187.77 1893.45 186.502 1895.38 184.993C1907.51 175.699 1913.58 167.219 1913.58 159.554C1913.58 154.665 1911.59 150.772 1907.6 147.875C1903.86 145.22 1899.27 143.892 1893.84 143.892C1887.14 143.892 1878.96 145.521 1869.31 148.781C1853.43 154.152 1839.64 161.727 1827.93 171.504C1826.32 172.852 1824.8 174.208 1823.38 175.573C1822.47 176.216 1821.54 176.911 1820.6 177.66L1804.49 190.063C1791.87 199.297 1783.33 203.914 1778.87 203.914C1775.61 203.914 1772.62 202.074 1769.9 198.392C1767.25 194.71 1765.92 190.787 1765.92 186.623C1765.92 177.389 1767.64 169.482 1771.08 162.904C1784.36 152.342 1794.89 141.297 1802.68 129.769C1806.36 124.337 1809.16 119.237 1811.09 114.469C1813.03 109.641 1813.99 105.476 1813.99 101.976C1813.99 98.4751 1812.51 95.4876 1809.56 93.013C1808.29 91.987 1806.9 91.2024 1805.39 90.6592C1803.94 90.0557 1802.31 89.7539 1800.5 89.7539C1798.75 89.7539 1796.22 90.5989 1792.9 92.2888C1782.22 97.6603 1770.84 107.86 1758.77 122.889C1743.69 141.599 1734.6 159.019 1731.47 175.15C1730.36 175.907 1729.23 176.743 1728.08 177.66L1711.96 190.063C1699.35 199.297 1690.81 203.914 1686.34 203.914C1683.08 203.914 1680.1 202.074 1677.38 198.392C1674.72 194.71 1673.4 190.787 1673.4 186.623C1673.4 177.389 1675.12 169.482 1678.56 162.904C1691.83 152.342 1702.37 141.297 1710.15 129.769C1713.83 124.337 1716.64 119.237 1718.57 114.469C1720.5 109.641 1721.47 105.476 1721.47 101.976C1721.47 98.4751 1719.99 95.4876 1717.03 93.013C1715.76 91.987 1714.38 91.2024 1712.87 90.6592C1711.42 90.0557 1709.79 89.7539 1707.98 89.7539C1706.23 89.7539 1703.69 90.5989 1700.37 92.2888C1689.69 97.6603 1678.31 107.86 1666.24 122.889C1651.06 141.739 1641.94 159.28 1638.88 175.511C1637.95 176.246 1636.99 177.023 1636.01 177.841L1625.05 186.623C1622.94 188.252 1620.89 189.761 1618.9 191.149C1616.96 192.477 1615.18 193.594 1613.55 194.499C1611.92 195.344 1610.66 195.767 1609.75 195.767C1608.91 195.767 1607.94 194.288 1606.86 191.331C1606.37 190.063 1605.89 188.645 1605.41 187.076C1604.92 185.446 1604.41 183.847 1603.87 182.277C1601.69 176.423 1597.29 173.496 1590.65 173.496C1582.8 173.496 1573.06 176.996 1561.41 183.997L1553.89 188.434C1542.43 195.193 1535.12 198.573 1531.99 198.573C1528.79 198.573 1527.19 197.577 1527.19 195.586C1527.19 193.594 1528.3 191.542 1530.54 189.429C1538.38 181.825 1550.76 174.492 1567.65 167.43L1579.06 162.541C1582.26 161.153 1584.37 159.795 1585.4 158.468C1586.43 157.14 1586.94 155.148 1586.94 152.492C1586.94 148.63 1584.98 146.698 1581.05 146.698C1569.47 146.698 1554.26 150.229 1535.43 157.291C1515.51 164.835 1500.93 173.134 1491.7 182.187C1485.24 188.524 1482.01 195.736 1482.01 203.824C1482.01 212.032 1484.73 219.245 1490.16 225.461C1495.83 232.04 1502.92 235.329 1511.43 235.329C1518.07 235.329 1528.03 231.708 1541.31 224.465L1552.45 218.128L1571.73 206.268L1573.9 214.145C1575.71 220.723 1578.16 225.491 1581.23 228.449C1584.98 231.949 1591.13 232.1 1599.7 228.901C1612.07 224.256 1625.17 215.429 1638.99 202.42C1640.48 210.519 1643.29 217.384 1647.41 223.017C1653.63 231.466 1661.6 235.691 1671.31 235.691C1684.83 235.691 1700.19 228.811 1717.39 215.05C1722.43 210.965 1727.15 206.826 1731.55 202.631C1733.05 210.638 1735.84 217.433 1739.94 223.017C1746.15 231.466 1754.12 235.691 1763.84 235.691C1777.15 235.691 1792.26 229.016 1809.14 215.665C1811.01 220.238 1814.53 224.318 1819.7 227.905C1827.42 233.277 1836.44 235.963 1846.76 235.963C1860.28 235.963 1874.26 233.005 1888.68 227.091C1895.2 224.435 1901.35 221.447 1907.15 218.128C1912.94 214.808 1918.22 211.459 1922.99 208.079L1923.15 207.968L1923.3 207.865C1923.57 215.784 1925.49 222.283 1929.06 227.362C1931.05 230.139 1933.55 232.341 1936.57 233.971C1939.59 235.661 1943.09 236.506 1947.07 236.506C1951.12 236.506 1954.92 236.053 1958.48 235.148C1962.1 234.303 1966.54 232.553 1971.79 229.897C1977.04 227.181 1984.28 221.659 1993.52 213.33L1974.32 248.728C1971.61 253.979 1969.4 258.626 1967.71 262.67C1966.02 266.774 1965.18 270.365 1965.18 273.443C1965.18 276.521 1967.41 280.022 1971.88 283.945C1974.29 286.057 1976.8 287.113 1979.39 287.113C1981.87 287.113 1984.34 285.544 1986.82 282.406C1987.96 280.957 1989.14 279.207 1990.35 277.155C1991.55 275.163 1992.76 273.262 1993.97 271.451C1995.24 269.701 1996.99 267.015 1999.22 263.394C2001.09 261.523 2003.87 258.988 2007.55 255.789L2049.19 220.572L2070.56 202.013C2072.67 200.082 2074.63 198 2076.44 195.767C2082.36 188.645 2085.32 182.821 2085.32 178.294C2085.32 173.888 2083.02 171.685 2078.44 171.685C2076.32 171.685 2073.67 172.892 2070.47 175.306L2038.96 202.285L2023.57 216.227L2027.28 208.26C2032.48 197.094 2036.07 188.192 2038.06 181.553C2039.14 177.992 2039.93 174.793 2040.41 171.957C2040.95 169.06 2041.23 166.434 2041.23 164.08C2041.23 161.666 2040.05 159.403 2037.7 157.291C2036.55 156.265 2035.22 155.42 2033.71 154.756C2032.2 154.092 2030.48 153.76 2028.55 153.76C2026.62 153.76 2022.67 156.687 2016.69 162.541L2007.91 171.414C1989.93 190.063 1977.19 199.388 1969.71 199.388ZM1849.57 192.598L1854.55 190.063C1856.18 189.218 1857.63 188.434 1858.9 187.709C1871.09 180.708 1878.03 176.393 1879.72 174.763C1881.41 173.134 1882.25 172.017 1882.25 171.414C1882.25 170.75 1882.07 169.995 1881.71 169.15C1881.35 168.305 1880.86 167.551 1880.26 166.887C1878.81 165.197 1877.27 164.352 1875.64 164.352C1874.01 164.352 1872.2 164.654 1870.21 165.257C1868.28 165.861 1866.32 166.706 1864.33 167.792C1862.34 168.818 1860.4 170.086 1858.53 171.595C1856.72 173.043 1855.12 174.612 1853.74 176.302C1850.54 180.105 1848.94 183.394 1848.94 186.17C1848.94 188.947 1849.15 191.089 1849.57 192.598ZM1202.67 193.101C1199.47 193.101 1197.87 190.355 1197.87 184.863C1197.87 183.535 1197.96 182.147 1198.14 180.699L1198.5 176.444C1198.68 175.055 1198.83 173.758 1198.95 172.551C1199.13 171.344 1199.23 170.318 1199.23 169.473C1199.23 166.877 1197.38 163.829 1193.7 160.329C1191.71 158.398 1189.51 157.432 1187.09 157.432C1182.57 157.432 1175.51 160.57 1165.91 166.847L1157.58 172.641L1140.92 185.044C1138.21 187.096 1136.15 188.122 1134.77 188.122C1133.5 188.122 1132.68 187.217 1132.32 185.406C1132.26 184.923 1133.2 182.841 1135.13 179.159L1137.84 173.818C1141.77 166.274 1143.73 160.842 1143.73 157.522C1143.73 152.09 1139.59 149.375 1131.33 149.375C1126.8 149.375 1122.57 150.31 1118.65 152.181C1110.93 155.742 1104.41 162.14 1099.1 171.374C1098.39 172.596 1097.71 173.836 1097.06 175.095C1096.05 175.888 1095.01 176.73 1093.94 177.62L1082.98 186.402C1080.87 188.032 1078.82 189.54 1076.83 190.929C1074.89 192.256 1073.11 193.373 1071.48 194.278C1069.86 195.123 1068.59 195.546 1067.68 195.546C1066.84 195.546 1065.87 194.067 1064.79 191.11C1064.3 189.842 1063.82 188.424 1063.34 186.855C1062.85 185.225 1062.34 183.626 1061.8 182.056C1059.63 176.202 1055.22 173.275 1048.58 173.275C1040.73 173.275 1030.99 176.775 1019.34 183.777L1011.82 188.213C1000.36 194.972 993.054 198.352 989.916 198.352C986.717 198.352 985.117 197.356 985.117 195.365C985.117 193.373 986.234 191.321 988.467 189.208C996.313 181.604 1008.69 174.271 1025.59 167.209L1036.99 162.321C1040.19 160.932 1042.3 159.574 1043.33 158.247C1044.36 156.919 1044.87 154.927 1044.87 152.272C1044.87 148.409 1042.91 146.477 1038.98 146.478C1027.4 146.478 1012.19 150.008 993.356 157.07C973.439 164.614 958.863 172.913 949.629 181.966C949.201 182.386 948.787 182.81 948.387 183.238C946.852 184.393 945.154 185.659 943.292 187.036C933.816 193.795 927.147 197.175 923.284 197.175C917.732 197.175 914.955 192.739 914.955 183.867C914.955 181.755 915.861 178.496 917.671 174.09C918.637 171.736 919.12 169.865 919.12 168.477C919.12 165.942 917.43 162.984 914.05 159.605C912.119 157.673 909.916 156.708 907.441 156.708C902.251 156.708 894.616 161.234 884.536 170.287L875.755 178.526C867.124 186.734 861.36 190.838 858.463 190.838C857.256 190.838 856.653 190.144 856.653 188.756C856.653 187.307 857.075 185.255 857.92 182.6L860.636 173.365C861.602 169.865 862.477 166.244 863.262 162.502C864.107 158.76 864.529 155.41 864.529 152.453C864.529 149.495 862.266 146.84 857.739 144.486C855.144 143.158 851.764 142.494 847.6 142.494C842.53 142.494 835.71 145.301 827.139 150.914C823.397 153.388 819.505 156.255 815.461 159.514C811.477 162.773 801.73 171.193 786.219 184.772C783.865 186.824 782.055 187.851 780.787 187.851C780.184 187.851 779.61 187.639 779.067 187.217C778.584 186.734 778.343 186.1 778.343 185.316C778.343 184.471 780.968 178.858 786.219 168.477C788.694 163.769 789.931 160.269 789.931 157.975C789.931 152.664 785.404 150.008 776.351 150.008C767.358 150.008 759.542 153.569 752.903 160.691C749.825 163.95 747.079 167.813 744.665 172.279C744.312 172.923 743.968 173.573 743.632 174.231C743.494 174.328 743.356 174.427 743.217 174.527L743.145 174.579L742.945 174.723L726.377 187.669C723.42 189.903 720.402 192.075 717.324 194.188C714.307 196.3 711.319 198.171 708.362 199.801C705.465 201.43 702.628 202.728 699.852 203.694C697.136 204.659 694.752 205.142 692.7 205.142C690.708 205.142 688.264 204.116 685.367 202.064C682.288 199.891 680.75 197.779 680.749 195.727C682.621 194.037 685.125 191.291 688.264 187.488C689.893 185.497 691.583 183.294 693.333 180.88C695.144 178.405 696.774 175.9 698.222 173.365C699.731 170.77 700.938 168.205 701.843 165.67C702.809 163.075 703.292 160.782 703.292 158.79C703.292 156.798 703.201 155.048 703.02 153.539C702.417 148.59 697.709 146.115 688.897 146.115C682.741 146.115 676.072 148.801 668.89 154.173C661.708 159.544 655.793 166.183 651.146 174.09C650.974 174.386 650.806 174.681 650.64 174.977C650.528 175.178 650.416 175.378 650.307 175.579C649.817 175.909 649.312 176.257 648.792 176.625L641.278 181.966C638.501 184.018 632.979 187.76 624.71 193.192C621.693 195.123 619.007 196.783 616.653 198.171C614.299 199.499 612.307 200.525 610.678 201.249C609.109 201.913 607.69 202.245 606.423 202.245C605.155 202.245 603.979 201.823 602.892 200.978C601.806 200.072 601.263 199.046 601.263 197.9C601.263 196.753 603.405 193.977 607.69 189.571L613.665 183.596C621.934 175.568 626.068 169.684 626.068 165.942C626.068 162.321 624.801 159.001 622.266 155.983C621.119 154.656 619.791 153.599 618.283 152.815C616.834 151.97 615.536 151.547 614.39 151.547C613.243 151.547 611.674 151.638 609.682 151.819L596.826 152.724C594.774 152.905 593.266 152.996 592.3 152.996C591.334 152.996 590.369 152.241 589.403 150.732L588.135 148.741C586.325 145.844 582.854 144.395 577.724 144.395C571.93 144.395 564.99 147.172 556.902 152.724C549.358 157.854 542.749 163.95 537.076 171.012C532.742 176.418 530.012 181.162 528.886 185.246C525.903 187.287 521.934 189.936 516.978 193.192C513.96 195.123 511.274 196.783 508.92 198.171C506.566 199.499 504.575 200.525 502.945 201.249C501.376 201.913 499.958 202.245 498.69 202.245C497.423 202.245 496.246 201.823 495.159 200.978C494.073 200.072 493.53 199.046 493.53 197.9C493.53 196.753 495.672 193.976 499.958 189.571L505.933 183.596C514.201 175.568 518.335 169.684 518.335 165.942C518.335 162.321 517.068 159.001 514.533 155.983C513.386 154.656 512.059 153.599 510.55 152.815C509.101 151.97 507.804 151.547 506.657 151.547C505.51 151.547 503.941 151.638 501.949 151.819L489.094 152.724C487.042 152.905 485.533 152.996 484.567 152.996C483.602 152.996 482.636 152.241 481.67 150.732L480.403 148.741C478.592 145.844 475.122 144.395 469.992 144.395C464.198 144.395 457.257 147.172 449.169 152.724C441.625 157.854 435.016 163.95 429.343 171.012C424.576 176.957 421.75 182.103 420.864 186.448C418.373 188.165 415.767 189.87 413.047 191.562C409.184 193.976 405.352 196.21 401.55 198.262C397.808 200.253 394.277 201.973 390.957 203.422C387.638 204.871 384.65 205.987 381.995 206.772C379.399 207.556 376.442 207.949 373.123 207.949C369.863 207.949 366.333 206.953 362.53 204.961C374.843 199.71 384.017 194.972 390.052 190.748L393.311 188.575C394.88 187.549 396.631 186.281 398.562 184.772C410.693 175.478 416.759 166.998 416.759 159.333C416.759 154.444 414.767 150.551 410.784 147.654C407.042 144.999 402.455 143.671 397.023 143.671C390.324 143.671 382.145 145.301 372.489 148.56C356.616 153.931 342.825 161.506 331.116 171.283C317.536 182.63 310.746 194.61 310.746 207.224C310.746 215.251 314.79 222.072 322.877 227.685C330.603 233.056 339.626 235.742 349.946 235.742C363.466 235.742 377.438 232.784 391.863 226.87C398.381 224.214 404.537 221.227 410.331 217.907C416.125 214.588 421.406 211.238 426.174 207.858C428.665 206.114 430.987 204.411 433.141 202.747C436.539 201.107 441.73 197.107 448.717 190.748L457.589 182.6C461.15 179.461 463.473 177.892 464.56 177.892C467.095 177.892 468.996 178.043 470.263 178.345C471.591 178.646 472.255 179.371 472.255 180.517C472.255 181.242 470.444 183.505 466.823 187.307C462.538 191.713 458.826 196.783 455.688 202.517C454.118 205.414 452.851 208.341 451.885 211.298C450.919 214.195 450.437 216.911 450.437 219.446C450.437 221.981 450.889 224.274 451.795 226.327C454.692 233.147 462.749 236.557 475.967 236.557C485.02 236.557 494.948 233.931 505.752 228.68C510.52 226.387 515.046 223.822 519.331 220.985C523.617 218.088 527.509 215.251 531.01 212.475C534.571 209.639 537.649 207.013 540.244 204.599C541.57 203.366 542.911 202.078 544.268 200.735C547.421 198.599 551.481 195.27 556.449 190.748L565.321 182.6C568.882 179.461 571.206 177.892 572.292 177.892C574.827 177.892 576.729 178.043 577.996 178.345C579.324 178.646 579.988 179.371 579.988 180.517C579.988 181.242 578.177 183.505 574.556 187.307C570.271 191.713 566.559 196.783 563.42 202.517C561.851 205.414 560.584 208.341 559.618 211.298C558.652 214.195 558.169 216.911 558.169 219.446C558.169 221.981 558.622 224.274 559.527 226.327C562.424 233.147 570.482 236.557 583.699 236.557C592.753 236.557 602.681 233.931 613.484 228.68C618.252 226.387 622.779 223.822 627.064 220.985C631.349 218.088 635.242 215.251 638.743 212.475C640.827 210.815 642.746 209.227 644.5 207.711C646.091 213.954 649.665 219.767 655.22 225.15C658.72 228.529 662.703 231.245 667.17 233.297C671.696 235.289 676.042 236.285 680.206 236.285C684.431 236.285 688.716 235.561 693.062 234.112C697.407 232.724 701.873 230.853 706.46 228.499C711.047 226.085 715.634 223.309 720.221 220.17C724.869 216.972 729.335 213.622 733.62 210.121L733.876 209.912C733.645 212.443 733.53 214.867 733.53 217.183C733.529 221.77 735.431 225.693 739.233 228.952C742.734 232.03 746.204 233.569 749.644 233.569C756.947 233.569 766.393 228.952 777.981 219.718L789.297 210.302L810.844 191.472C813.137 189.48 815.099 187.851 816.728 186.583C818.358 185.316 819.474 184.682 820.078 184.682C820.681 184.682 820.983 184.923 820.983 185.406C820.983 186.794 819.776 190.929 817.362 197.809L809.576 219.175C807.886 224.063 807.041 227.141 807.041 228.409C807.041 231.608 808.43 234.022 811.206 235.651C812.413 236.436 813.801 236.979 815.37 237.281C816.94 237.643 818.599 237.824 820.35 237.824C822.16 237.824 823.941 237.613 825.691 237.19C829.131 236.406 839.874 229.676 857.92 217.002L884.265 199.167C884.265 205.685 885.2 211.268 887.071 215.915C890.27 224.003 896.336 228.047 905.268 228.047C913.054 228.047 921.775 225.572 931.432 220.623C934.973 218.778 938.412 216.747 941.747 214.53C943.1 218.379 945.214 221.949 948.09 225.24C953.763 231.819 960.855 235.108 969.365 235.108C976.004 235.108 985.962 231.487 999.24 224.244L1010.38 217.907L1029.66 206.047L1031.83 213.924C1033.64 220.502 1036.09 225.27 1039.16 228.228C1042.91 231.728 1049.06 231.879 1057.63 228.68C1067.15 225.107 1077.09 219.058 1087.47 210.535C1087.25 213.413 1087.15 216.354 1087.15 219.356C1087.15 222.554 1088.78 225.693 1092.04 228.771C1093.6 230.159 1095.42 231.306 1097.47 232.211C1099.58 233.116 1101.72 233.569 1103.9 233.569C1106.07 233.569 1110.26 231.638 1116.48 227.775C1119.07 226.145 1129 219.597 1146.26 208.13C1149.52 206.017 1152.48 204.237 1155.14 202.788C1157.85 201.279 1160.18 200.223 1162.11 199.62C1164.1 198.956 1165.43 198.895 1166.09 199.439C1166.75 199.982 1167.39 202.668 1167.99 207.496C1168.23 209.488 1168.63 211.57 1169.17 213.743C1171.1 222.132 1175.84 226.327 1183.38 226.327C1194.19 226.327 1206.41 222.041 1220.05 213.471C1231.82 206.108 1241.08 198.322 1247.84 190.114C1252.37 185.104 1254.63 180.367 1254.63 175.9C1254.63 173.909 1254.21 172.46 1253.36 171.555C1252.58 170.649 1250.65 170.197 1247.57 170.197C1244.55 170.197 1240.6 171.826 1235.71 175.086L1233.26 177.168C1220.71 187.79 1210.51 193.101 1202.67 193.101ZM729.275 128.824C727.524 130.272 725.623 131.479 723.571 132.445C721.519 133.35 719.225 133.803 716.691 133.803C714.156 133.803 711.711 133.381 709.357 132.536C707.004 131.691 704.952 130.514 703.201 129.005C699.399 125.746 697.498 121.581 697.498 116.511C697.498 108.726 704.016 102.932 717.053 99.1294C721.459 97.8016 725.08 97.1377 727.917 97.1377C730.753 97.1377 732.866 97.4696 734.254 98.1335C735.702 98.7371 736.879 99.5519 737.784 100.578C739.595 102.63 740.5 104.742 740.5 106.915C740.5 109.028 740.229 110.959 739.686 112.709C739.203 114.459 738.479 116.27 737.513 118.141C736.547 120.012 735.37 121.883 733.982 123.754C732.594 125.625 731.025 127.315 729.275 128.824ZM352.753 192.377L357.732 189.842C359.362 188.997 360.81 188.213 362.078 187.488C374.269 180.487 381.21 176.172 382.9 174.542C384.59 172.913 385.435 171.796 385.435 171.193C385.435 170.529 385.254 169.774 384.892 168.929C384.529 168.084 384.047 167.33 383.443 166.666C381.995 164.976 380.456 164.131 378.826 164.131C377.196 164.131 375.386 164.433 373.394 165.037C371.463 165.64 369.501 166.485 367.51 167.571C365.518 168.597 363.586 169.865 361.716 171.374C359.905 172.822 358.305 174.391 356.917 176.081C353.719 179.884 352.119 183.173 352.119 185.949C352.119 188.726 352.33 190.868 352.753 192.377ZM246.818 242.479L246.818 109.448L169.827 242.48L127.142 242.479L50.9376 109.448L50.9376 242.479L0.919896 242.48L0.91992 67.8108L85.5046 67.8108L149.663 183.558L213.036 67.8107L297.097 67.8107L297.097 242.479L246.818 242.479ZM1319.64 0.974556L1323.03 206.149L1385.89 238.007L1558.21 121.887L1503.36 94.0886L1375.24 182.583L1373.52 28.2814L1319.64 0.974556ZM1456.63 37.0302C1469.2 44.8379 1479.72 55.9903 1485.89 69.7754L1404.64 27.3974C1422.65 24.9792 1441.27 28.4901 1456.63 37.0302ZM1387.2 25.4353L1386.78 156.666L1496.14 82.0627C1496.8 81.9752 1497.47 81.8163 1498.13 81.5897C1501.98 80.2745 1504.47 77.462 1502.42 72.2328C1490.33 34.7238 1449.89 12.8121 1413.17 12.3519C1406.09 12.1396 1398.96 12.8295 1391.9 14.5503C1386.47 15.5059 1385.47 19.178 1386.44 23.2545C1386.63 24.0239 1386.88 24.7576 1387.2 25.4353ZM1407.42 70.7418C1411.79 73.0201 1417.18 71.326 1419.46 66.958C1421.73 62.59 1420.04 57.2021 1415.67 54.9238C1411.3 52.6455 1405.92 54.3395 1403.64 58.7075C1401.36 63.0755 1403.05 68.4635 1407.42 70.7418ZM1404.16 76.992C1411.98 81.0708 1421.63 78.038 1425.71 70.218C1429.79 62.3981 1426.75 52.7523 1418.93 48.6736C1411.11 44.5948 1401.47 47.6276 1397.39 55.4475C1393.31 63.2674 1396.34 72.9132 1404.16 76.992ZM1414.27 108.726C1412.51 112.095 1408.36 113.402 1404.99 111.645C1401.62 109.887 1400.31 105.732 1402.07 102.362C1403.83 98.9933 1407.98 97.6867 1411.35 99.444C1414.72 101.201 1416.03 105.357 1414.27 108.726ZM1419.09 111.241C1415.95 117.272 1408.51 119.611 1402.47 116.465C1396.44 113.319 1394.1 105.879 1397.25 99.8479C1400.4 93.8164 1407.84 91.4772 1413.87 94.6231C1419.9 97.7691 1422.24 105.209 1419.09 111.241ZM1454.52 90.1226C1458.11 91.9978 1462.55 90.6035 1464.42 87.0082C1466.3 83.4129 1464.9 78.9781 1461.31 77.1029C1457.71 75.2276 1453.28 76.622 1451.4 80.2173C1449.53 83.8126 1450.92 88.2473 1454.52 90.1226ZM1451.83 95.2671C1458.27 98.6243 1466.21 96.128 1469.57 89.6915C1472.92 83.255 1470.43 75.3156 1463.99 71.9584C1457.55 68.6012 1449.61 71.0975 1446.26 77.534C1442.9 83.9705 1445.4 91.9098 1451.83 95.2671ZM1404.7 136.019C1406.45 136.932 1408.61 136.254 1409.53 134.504C1410.44 132.754 1409.76 130.596 1408.01 129.683C1406.26 128.77 1404.1 129.449 1403.19 131.199C1402.28 132.948 1402.95 135.107 1404.7 136.019ZM1401.95 40.9124C1401.1 42.552 1399.07 43.1879 1397.43 42.3327C1395.79 41.4775 1395.16 39.455 1396.01 37.8155C1396.87 36.1758 1398.89 35.5399 1400.53 36.3951C1402.17 37.2503 1402.81 39.2728 1401.95 40.9124ZM1429.1 92.1689C1430.85 93.0816 1433.01 92.4029 1433.92 90.6531C1434.83 88.9033 1434.15 86.7449 1432.4 85.8322C1430.65 84.9196 1428.5 85.5982 1427.58 87.348C1426.67 89.0978 1427.35 91.2562 1429.1 92.1689ZM1139.77 345.422L1122 345.422L1151.24 293L1172.78 293L1201.38 345.422L1183.78 345.422L1178.83 335.912L1144.95 335.912L1139.77 345.422ZM1150.53 325.066L1173.01 325.066L1161.77 304.318L1150.53 325.066ZM1118.01 345.422L1118.01 333.554L1077.38 333.554L1117.23 304.946L1117.23 293L1055.29 293L1055.29 304.946L1093.81 304.946L1054.27 333.554L1054.27 345.422L1118.01 345.422ZM1048.47 333.554L1048.47 345.422L984.734 345.422L984.734 333.554L1024.27 304.946L985.756 304.946L985.756 293L1047.69 293L1047.69 304.946L1007.84 333.554L1048.47 333.554ZM960.61 293L960.61 345.422L976.564 345.422L976.564 293L960.61 293ZM947.864 296.851C944.773 294.284 939.298 293 931.438 293L888.998 293L888.998 345.422L904.953 345.422L904.953 332.375L929.866 332.375L933.953 332.375C941.551 332.375 946.528 330.882 948.886 327.895C951.296 324.857 952.501 319.669 952.501 312.334C952.501 304.527 950.955 299.366 947.864 296.851ZM934.503 307.147C935.761 308.09 936.39 310.003 936.39 312.884C936.39 315.661 935.761 317.495 934.503 318.386C933.298 319.224 931.176 319.643 928.137 319.643L904.953 319.643L904.953 305.732L927.902 305.732C931.045 305.732 933.246 306.204 934.503 307.147ZM1223.99 327.893L1709.54 327.893L1709.54 319L1223.99 319L1223.99 327.893ZM865.542 327.893L379.99 327.893L379.99 319L865.542 319L865.542 327.893Z" fill="#B71C1C"/>
</svg>
